<?xml version="1.0"?>
<svg xmlns="http://www.w3.org/2000/svg" xmlns:xlink="http://www.w3.org/1999/xlink" version="1.1" viewBox="0 0 210 210" width="500px" height="500px"><g fill="none" fill-rule="none" stroke="none" stroke-width="1" stroke-linecap="butt" stroke-linejoin="miter" stroke-miterlimit="10" stroke-dasharray="" stroke-dashoffset="0" font-family="none" font-weight="none" font-size="none" text-anchor="none" style="mix-blend-mode: normal"><path d="M0,210v-210h210v210z" fill="none" fill-rule="nonzero"/><g id="original-icon" fill="#61dafb" fill-rule="evenodd"><path d="M145.12969,16.73438c-3.27468,-0.11011 -6.70238,0.46081 -10.13906,1.575c-6.87337,2.22838 -14.07597,6.57094 -21.46758,12.58359c-2.89677,2.35636 -5.81983,5.04991 -8.75274,7.90781c-2.86824,-2.78534 -5.73123,-5.40659 -8.56406,-7.71094c-7.38567,-6.00783 -14.56875,-10.35206 -21.42656,-12.57539c-6.8578,-2.22333 -13.68135,-2.29222 -19.28555,0.94336c-5.6042,3.23558 -8.95554,9.17508 -10.45899,16.22578c-1.50344,7.0507 -1.33783,15.44717 0.17227,24.84726c0.52453,3.26509 1.2726,6.69047 2.12461,10.18008c-3.20223,0.97048 -6.31199,1.99087 -9.1957,3.11719c-8.7028,3.39911 -15.90385,7.46566 -21.14766,12.30469c-5.24381,4.83903 -8.62969,10.71207 -8.62969,17.16094c0,6.44887 3.38588,12.31371 8.62969,17.15273c5.2438,4.83903 12.44485,8.91378 21.14766,12.31289c3.08353,1.20435 6.42197,2.28879 9.86836,3.31406c-1.23966,4.63193 -2.24403,9.12672 -2.92852,13.3875c-1.51131,9.40764 -1.6709,17.80517 -0.16406,24.87187c1.50686,7.0667 4.8599,13.03983 10.4918,16.29141c5.63191,3.25158 12.486,3.17174 19.35938,0.94336c6.87337,-2.22838 14.06777,-6.56274 21.45937,-12.57539c2.8701,-2.33466 5.77332,-4.99792 8.67891,-7.82578c2.92082,2.8449 5.83566,5.52061 8.71992,7.8668c7.38567,6.00782 14.57696,10.34386 21.43477,12.56719c6.85781,2.22333 13.68135,2.29222 19.28555,-0.94336c5.60419,-3.23558 8.94734,-9.17508 10.45078,-16.22578c1.50344,-7.0507 1.33782,-15.43897 -0.17227,-24.83906c-0.68633,-4.27234 -1.69133,-8.78204 -2.93672,-13.42852c3.56024,-1.05024 7.00413,-2.16384 10.18008,-3.4043c8.7028,-3.39911 15.90385,-7.47386 21.14766,-12.31289c5.24381,-4.83903 8.62969,-10.70386 8.62969,-17.15273c0,-6.44887 -3.38588,-12.32191 -8.62969,-17.16094c-5.24381,-4.83903 -12.44485,-8.90557 -21.14766,-12.30469c-2.9251,-1.14248 -6.08258,-2.17616 -9.33516,-3.1582c0.85894,-3.51099 1.62153,-6.96094 2.14922,-10.2457c1.51131,-9.40764 1.67093,-17.81338 0.16406,-24.88008c-1.50683,-7.0667 -4.8681,-13.03162 -10.5,-16.2832c-2.81595,-1.62579 -5.93743,-2.41645 -9.21211,-2.52656zM144.74414,25.28203c2.0549,0.05619 3.8079,0.54519 5.30742,1.41094c2.99904,1.73149 5.2158,5.10142 6.39844,10.64766c1.18264,5.54623 1.14176,13.03976 -0.2543,21.73008c-0.47799,2.97539 -1.17201,6.1288 -1.96055,9.35977c-8.59112,-2.06755 -18.00503,-3.60179 -28.03828,-4.50352c-5.0368,-6.97777 -10.21218,-13.33467 -15.43008,-18.97383c2.75997,-2.69414 5.50207,-5.21388 8.17851,-7.39102c6.828,-5.55419 13.29222,-9.33351 18.68672,-11.08242c2.69725,-0.87446 5.0572,-1.25385 7.11211,-1.19766zM65.04258,25.30664c2.06678,-0.0577 4.43168,0.32067 7.13672,1.19766c5.41006,1.75396 11.8856,5.53161 18.71953,11.09063c2.62273,2.13344 5.30342,4.60521 8.00625,7.23516c-5.25649,5.68531 -10.47466,12.09731 -15.54492,19.13789c-9.99082,0.91814 -19.36641,2.4607 -27.91523,4.53633c-0.78265,-3.21304 -1.47678,-6.35024 -1.95234,-9.31055c-1.39728,-8.69786 -1.43215,-16.19245 -0.24609,-21.75469c1.18605,-5.56224 3.42092,-8.95759 6.44766,-10.70508c1.51336,-0.87374 3.28165,-1.36965 5.34844,-1.42734zM104.90156,50.99883c3.42136,3.72327 6.84345,7.79764 10.2375,12.18164c-3.33492,-0.13905 -6.71065,-0.22149 -10.13906,-0.22149c-3.49668,0 -6.93668,0.08511 -10.33594,0.22969c3.39482,-4.38739 6.81529,-8.46378 10.2375,-12.18984zM105,71.44102c5.71155,0 11.27846,0.2347 16.69336,0.63164c3.72591,5.35145 7.36696,11.02878 10.83633,17.03789c3.04843,5.28003 5.80709,10.55194 8.31797,15.7582c-2.53738,5.27533 -5.34228,10.61853 -8.43281,15.97148c-2.72049,4.71202 -5.56145,9.18735 -8.44922,13.50234c-6.11651,0.51123 -12.45435,0.7957 -18.96563,0.7957c-6.66802,0 -13.14826,-0.30135 -19.40039,-0.83672c-2.83969,-4.25295 -5.63272,-8.66049 -8.30976,-13.29726c-3.08346,-5.34071 -5.87482,-10.67417 -8.4082,-15.93867c2.544,-5.29424 5.3479,-10.65727 8.44922,-16.02891c3.45118,-5.97762 7.08161,-11.62209 10.78711,-16.94766c5.47319,-0.40588 11.10472,-0.64804 16.88203,-0.64804zM132.50508,73.12266c6.92358,0.86388 13.42427,2.06325 19.47422,3.50274c-1.79516,5.88481 -4.00635,12.0316 -6.68555,18.375c-1.73957,-3.35337 -3.54123,-6.71814 -5.48789,-10.08984c-2.35909,-4.08606 -4.81614,-7.9816 -7.30078,-11.78789zM77.04375,73.18828c-2.4322,3.73513 -4.82544,7.55495 -7.13672,11.5582c-1.97164,3.41497 -3.8107,6.82501 -5.56992,10.22109c-2.65608,-6.30526 -4.85396,-12.41709 -6.63633,-18.26836c6.00483,-1.4421 12.46764,-2.63721 19.34297,-3.51094zM160.28906,78.85664c2.9773,0.90084 5.85272,1.84094 8.49024,2.87109c8.02264,3.13346 14.36863,6.84394 18.48164,10.63946c4.113,3.79551 5.89804,7.41513 5.89804,10.92656c0,3.51143 -1.78504,7.13105 -5.89804,10.92656c-4.11301,3.79552 -10.459,7.506 -18.48164,10.63946c-2.93097,1.14476 -6.15127,2.18285 -9.49922,3.16641c-2.38824,-7.38687 -5.43656,-15.09333 -9.06445,-22.96055c4.17127,-9.03228 7.54094,-17.83881 10.07344,-26.20898zM49.57148,78.89766c2.50349,8.28665 5.82992,17.00564 9.94219,25.94649c-3.6517,7.91307 -6.71511,15.66332 -9.11367,23.0918c-3.22997,-0.95768 -6.34111,-1.96765 -9.1793,-3.07617c-8.02265,-3.13346 -14.36863,-6.84394 -18.48164,-10.63946c-4.11301,-3.79551 -5.89805,-7.41513 -5.89805,-10.92656c0,-3.51143 1.78504,-7.13105 5.89805,-10.92656c4.11301,-3.79552 10.459,-7.506 18.48164,-10.63946c2.59695,-1.0143 5.42414,-1.94102 8.35078,-2.83008zM105,84c-11.54823,0 -21,9.45177 -21,21c0,11.54823 9.45177,21 21,21c11.54823,0 21,-9.45177 21,-21c0,-11.54823 -9.45177,-21 -21,-21zM64.43555,114.93398c1.76694,3.413 3.60457,6.83781 5.58633,10.27031c1.55053,2.68559 3.13403,5.29975 4.74141,7.8668c-5.64045,-0.78213 -11.00211,-1.77235 -16.03711,-2.94492c1.60117,-4.90397 3.51675,-9.99443 5.70938,-15.19219zM145.40039,114.93398c2.2014,5.21006 4.11797,10.30868 5.72578,15.225c-5.05098,1.17119 -10.42915,2.15804 -16.08633,2.93672c1.62845,-2.59843 3.23668,-5.24531 4.80703,-7.96523c1.96718,-3.40726 3.79767,-6.80842 5.55352,-10.19649zM56.30625,138.28008c7.60126,1.80071 15.84016,3.18395 24.57656,4.08516c5.83199,8.43518 11.90765,16.01465 18.02227,22.64063c-2.73426,2.66595 -5.4443,5.16799 -8.09648,7.32539c-6.828,5.55419 -13.30043,9.3253 -18.69492,11.07422c-5.39451,1.74892 -9.4205,1.5182 -12.41953,-0.21328c-2.99904,-1.7315 -5.2076,-5.10143 -6.39024,-10.64766c-1.18264,-5.54623 -1.14996,-13.03156 0.24609,-21.72187c0.63333,-3.94239 1.57983,-8.16388 2.75625,-12.54258zM153.5543,138.31289c1.18625,4.40541 2.13556,8.64238 2.77266,12.6082c1.39728,8.69786 1.43215,16.19245 0.24609,21.75469c-1.18605,5.56224 -3.40451,8.96579 -6.43125,10.71328c-3.02674,1.74749 -7.0915,1.97546 -12.50156,0.22149c-5.41006,-1.75397 -11.88561,-5.53161 -18.71953,-11.09062c-2.67126,-2.17292 -5.40005,-4.69524 -8.15391,-7.38281c6.15559,-6.65183 12.27416,-14.26992 18.14531,-22.75547c8.75844,-0.89519 17.02021,-2.27017 24.64219,-4.06875zM91.84219,143.22656c4.3124,0.23502 8.68164,0.39375 13.15781,0.39375c4.32812,0 8.55566,-0.14921 12.73125,-0.36914c-4.26841,5.75892 -8.61931,10.99445 -12.95273,15.70898c-4.33079,-4.7246 -8.67351,-9.96949 -12.93633,-15.73359z"/></g></g></svg>
