<?xml version="1.0"?>
<svg xmlns="http://www.w3.org/2000/svg" xmlns:xlink="http://www.w3.org/1999/xlink" version="1.1" viewBox="0 0 210 210" width="500px" height="500px"><g fill="none" fill-rule="nonzero" stroke="none" stroke-width="1" stroke-linecap="butt" stroke-linejoin="miter" stroke-miterlimit="10" stroke-dasharray="" stroke-dashoffset="0" font-family="none" font-weight="none" font-size="none" text-anchor="none" style="mix-blend-mode: normal"><path d="M0,210v-210h210v210z" fill="none"/><g fill="#24292e"><path d="M95.375,18.375c-40.25,4.375 -72.625,36.75 -77,76.125c-4.375,41.125 19.25,77.875 55.125,91.875c2.625,0.875 5.25,-0.875 5.25,-4.375v-14c0,0 -3.5,0.875 -7.875,0.875c-12.25,0 -17.5,-10.5 -18.375,-16.625c-0.875,-3.5 -2.625,-6.125 -5.25,-8.75c-2.625,-0.875 -3.5,-0.875 -3.5,-1.75c0,-1.75 2.625,-1.75 3.5,-1.75c5.25,0 9.625,6.125 11.375,8.75c4.375,7 9.625,8.75 12.25,8.75c3.5,0 6.125,-0.875 7.875,-1.75c0.875,-6.125 3.5,-12.25 8.75,-15.75c-20.125,-4.375 -35,-15.75 -35,-35c0,-9.625 4.375,-19.25 10.5,-26.25c-0.875,-1.75 -1.75,-6.125 -1.75,-12.25c0,-3.5 0,-7.875 1.75,-11.375c0,-1.75 1.75,-2.625 2.625,-2.625h0.875c4.375,0.875 13.125,3.5 21,11.375c5.25,-1.75 11.375,-2.625 17.5,-2.625c6.125,0 12.25,0.875 17.5,2.625c7.875,-7.875 17.5,-10.5 21.875,-11.375h0.875c1.75,0 2.625,0.875 3.5,2.625c0,3.5 0,7.875 0,11.375c0,7 -0.875,10.5 -1.75,12.25c6.125,7 10.5,15.75 10.5,26.25c0,19.25 -14.875,30.625 -35,35c5.25,4.375 8.75,12.25 8.75,20.125v22.75c0,2.625 2.625,5.25 6.125,4.375c32.375,-13.125 55.125,-44.625 55.125,-81.375c0,-52.5 -44.625,-93.625 -97.125,-87.5z"/></g></g></svg>
